<svg xmlns="http://www.w3.org/2000/svg" xmlns:xlink="http://www.w3.org/1999/xlink" version="1.1" width="595.2765pt" height="841.89108pt" viewBox="0 0 595.2765 841.89108">
<text xml:space="preserve" transform="matrix(1 0 0 1 28.3465 28.3465)" font-size="15.4" font-family="LinLibertineB" font-weight="bold"><tspan y="9.933301" x="0 8.393 14.863887 22.499762 30.030362 33.88036 43.951959 52.542634 61.182035 69.77524 73.62524 84.92883 89.887638 97.68004 105.70344 112.29464 120.087039 134.02404 137.87404 143.38724 147.23725 158.01725 162.97605 169.55185 178.76105 186.55345 191.55846 196.51726 203.47806 211.00865 214.85866 223.25167 231.73706 238.20795 245.23035 252.76094">Free Body Diagram - Visualize Forces</tspan></text>
<path transform="matrix(1,0,0,1,28.3465,46.5298)" d="M0 1C0 .44771526 .44771526 0 1 0H537.5835C538.1358 0 538.5835 .44771526 538.5835 1V240.69356C538.5835 241.24585 538.1358 241.69356 537.5835 241.69356H1C.44771526 241.69356 0 241.24585 0 240.69356Z" fill="#ebf4de"/>
<path transform="matrix(1,0,0,1,28.3465,46.5298)" stroke-width="2" stroke-linecap="butt" stroke-miterlimit="4" stroke-linejoin="miter" fill="none" stroke="#66ae3e" d="M1 0H537.5835C538.1358 0 538.5835 .44771526 538.5835 1V240.69356C538.5835 241.24585 538.1358 241.69356 537.5835 241.69356H1C.44771526 241.69356 0 241.24585 0 240.69356V1C0 .44771526 .44771526 0 1 0"/>
<path transform="matrix(1,0,0,1,28.3465,46.5298)" d="M0 2C0 .8954305 .8954305 0 2 0H190.31885V21.095215C190.31885 22.199786 189.42342 23.095215 188.31885 23.095215H0Z" fill="#66ae3e"/>
<text fill="#ffffff" xml:space="preserve" transform="matrix(1 0 0 1 28.3465 46.5298)" font-size="11" font-family="LinLibertineB" font-weight="bold"><tspan y="15.095215" x="8 16.052002 20.749003 26.128003 28.878003 35.697145 41.15134 46.16734 50.10534 56.16634 60.87434 63.62434 70.09054 76.151538 79.693538 86.469539 90.40754 93.15754 97.09554 103.15654 105.90654 111.72554 115.26754 119.96454 126.54254 132.10854 135.68354 139.22554 144.19754 149.57654 152.32654 156.62754 162.68854 167.31061 172.32662 177.70561">Use Vector point to visualize forces</tspan></text>
<text xml:space="preserve" transform="matrix(1 0 0 1 28.3465 82.82501)" font-size="11" font-family="LinLibertine"><tspan y="7.2402346" x="8 13.335 18.879 22.885064 27.593064 32.510065 36.800065 39.550065 44.258066 49.285066 55.247068 57.997068 63.52749 68.44449 71.19449 75.200557 80.11755 85.82655 89.83262 94.74962 99.03962 103.95662 109.91862 113.394618 118.38681 123.95281 126.70281 131.72982 136.0198 138.7698 143.79682">Forces can be represented as a </tspan></text>
<text xml:space="preserve" transform="matrix(1 0 0 1 28.3465 82.82501)" font-size="11" font-family="LinLibertineB" font-weight="bold"><tspan y="7.2402346" x="146.47217 152.20523 157.65943 162.67543 166.61344 172.67444">vector</tspan></text>
<text xml:space="preserve" transform="matrix(1 0 0 1 28.3465 82.82501)" font-size="11" font-family="LinLibertine"><tspan y="7.2402346" x="177.3667 180.1167 185.1437 191.10572 196.6717 199.4217 204.4487 210.4107"> and an </tspan></text>
<text xml:space="preserve" transform="matrix(1 0 0 1 28.3465 82.82501)" font-size="11" font-family="LinLibertineB" font-weight="bold"><tspan y="7.2402346" x="213.14893 218.71492 225.49092 231.22193 234.79692">angle</tspan></text>
<text xml:space="preserve" transform="matrix(1 0 0 1 28.3465 82.82501)" font-size="11" font-family="LinLibertine"><tspan y="7.2402346" x="240.16553 242.58553 245.33553 251.09871 256.86354 259.8445">, This</tspan></text>
<text xml:space="preserve" transform="matrix(1 0 0 1 28.3465 82.82501)" font-size="11" font-family="LinLibertine"><tspan y="21.630469" x="8 12.708 17.735 23.697003 26.447003 31.977425 36.894426 39.644426 45.485425 49.775426 54.76762 60.333623 63.083623 66.55962 72.10362 74.85362 80.35362 85.27062 88.74662 91.49662 96.52362 99.27362 103.98162 106.88562 111.80262 116.82962 120.92162 123.67162 126.57562 132.19483 137.73883 143.37084 146.12084 151.66484 155.07485 157.82485 166.04184 171.95984 176.98685 180.46285 183.21285 186.68885 192.60684 197.52385 200.27385 203.68386 209.22786 213.23392 217.94193 222.85894 225.60894 228.58994 232.87993 235.62993 241.19593 246.73993 249.72093 255.68294">can be used to get a clear look of what the force is doing</tspan></text>
<text xml:space="preserve" transform="matrix(1 0 0 1 28.3465 82.82501)" font-size="11" font-family="LinLibertine"><tspan y="36.020704" x="8 13.544001 19.506 22.256 25.732 31.650002 36.567 39.317 44.861 50.284 53.276 58.268198 62.976198 66.452198">on the object.</tspan></text>
<path transform="matrix(1,0,0,1,36.3465,132.04572)" stroke-width="1" stroke-linecap="butt" stroke-miterlimit="4" stroke-linejoin="miter" fill="none" stroke="#000000" d="M0 80.14604H132.51322"/>
<path transform="matrix(1,0,0,1,36.3465,132.04572)" d="M134.6392 80.14604 131.80455 81.20903 132.51322 80.14604 131.80455 79.083049 134.6392 80.14604Z"/>
<path transform="matrix(1,0,0,1,36.3465,132.04572)" stroke-width="1" stroke-linecap="butt" stroke-miterlimit="4" stroke-linejoin="miter" fill="none" stroke="#000000" d="M134.6392 80.14604 131.80455 81.20903 132.51322 80.14604 131.80455 79.083049 134.6392 80.14604Z"/>
<path transform="matrix(1,0,0,1,36.3465,132.04572)" stroke-width="1" stroke-linecap="butt" stroke-miterlimit="4" stroke-linejoin="miter" fill="none" stroke="#000000" d="M68.0316 148.17765V15.664428"/>
<path transform="matrix(1,0,0,1,36.3465,132.04572)" d="M68.0316 13.538441 69.09459 16.37309 68.0316 15.664429 66.968608 16.37309 68.0316 13.538441Z"/>
<path transform="matrix(1,0,0,1,36.3465,132.04572)" stroke-width="1" stroke-linecap="butt" stroke-miterlimit="4" stroke-linejoin="miter" fill="none" stroke="#000000" d="M68.0316 13.538441 69.09459 16.37309 68.0316 15.664429 66.968608 16.37309 68.0316 13.538441Z"/>
<text xml:space="preserve" transform="matrix(1 0 0 1 172.4097 207.2684)" font-size="11" font-family="FiraMath"><tspan y="8.71286" x="1.13386">&#x1d465;</tspan></text>
<text xml:space="preserve" transform="matrix(1 0 0 1 99.05238 132.04572)" font-size="11" font-family="FiraMath"><tspan y="9.84672" x="2.26772">&#x1d466;</tspan></text>
<path transform="matrix(1,0,0,1,36.3465,132.04572)" stroke-width="1" stroke-linecap="butt" stroke-miterlimit="4" stroke-linejoin="miter" fill="none" stroke="#000000" d="M102.04739 80.146038C102.04739 74.86525 100.817897 69.65699 98.45625 64.93371"/>
<text xml:space="preserve" transform="matrix(1 0 0 1 118.647968 205.6315)" font-size="7.7" font-family="FiraMath"><tspan y="5.3053" x="0">&#x1d703;</tspan></text>
<path transform="matrix(1,0,0,1,36.3465,132.04572)" stroke-width="1" stroke-linecap="butt" stroke-miterlimit="4" stroke-linejoin="miter" fill="none" stroke="#000000" d="M68.0316 80.14604 110.2108 59.056444"/>
<path transform="matrix(1,0,0,1,36.3465,132.04572)" d="M112.112339 58.10567 110.05233 60.324136 110.21079 59.056444 109.10156 58.422597 112.112339 58.10567Z"/>
<path transform="matrix(1,0,0,1,36.3465,132.04572)" stroke-width="1" stroke-linecap="butt" stroke-miterlimit="4" stroke-linejoin="miter" fill="none" stroke="#000000" d="M112.112339 58.10567 110.05233 60.324136 110.21079 59.056444 109.10156 58.422597 112.112339 58.10567Z"/>
<path transform="matrix(1,0,0,1,147.03202,180.8017)" d="M0 0H5.401V7.579H0Z" fill="#ffffff"/>
<text xml:space="preserve" transform="matrix(1 0 0 1 147.03202 180.8017)" font-size="11" font-family="FiraMath"><tspan y="7.579" x="0">F</tspan></text>
<text xml:space="preserve" transform="matrix(1 0 0 1 297.63825 82.82501)" font-size="11" font-family="LinLibertine"><tspan y="7.579" x="0 3.2670003 9.229001 11.979001 15.455001 21.373002 24.354002 28.644001 31.394001 36.102 41.129 45.419004 50.22858 52.648584">In this case, </tspan></text>
<text xml:space="preserve" transform="matrix(1 0 0 1 353.00886 82.82501)" font-size="11" font-family="FiraMath"><tspan y="7.579" x="0">F</tspan></text>
<text xml:space="preserve" transform="matrix(1 0 0 1 353.00886 82.82501)" font-size="11" font-family="FiraMath"><tspan y="7.579" x="8.456555">&#x2248;</tspan></text>
<text xml:space="preserve" transform="matrix(1 0 0 1 370.02098 82.69301)" font-size="11" font-family="FiraMath"><tspan y="7.711" x="0">2</tspan></text>
<text xml:space="preserve" transform="matrix(1 0 0 1 370.02098 82.69301)" font-size="11" font-family="FiraMath"><tspan y="7.711" x="6.16">.</tspan></text>
<text xml:space="preserve" transform="matrix(1 0 0 1 370.02098 82.69301)" font-size="11" font-family="FiraMath"><tspan y="7.711" x="8.8">2</tspan></text>
<text xml:space="preserve" transform="matrix(1 0 0 1 370.02098 82.69301)" font-size="11" font-family="FiraMath"><tspan y="7.711" x="14.96">3</tspan></text>
<text xml:space="preserve" transform="matrix(1 0 0 1 370.02098 82.69301)" font-size="7.92" font-family="FiraMath"><tspan y="11.561" x="21.12">&#x1d441;</tspan></text>
<text xml:space="preserve" transform="matrix(1 0 0 1 297.63825 82.82501)" font-size="11" font-family="LinLibertine"><tspan y="7.579" x="99.47395 102.22395 110.440959 113.42196 116.89796 122.815959 125.565959 130.59296 136.55496 139.30496 144.33197 150.29398 155.79398 158.69799 163.61499 166.36499 171.909 175.319"> with an angle of </tspan></text>
<text xml:space="preserve" transform="matrix(1 0 0 1 475.67518 82.82501)" font-size="11" font-family="FiraMath"><tspan y="7.579" x="0">2</tspan></text>
<text xml:space="preserve" transform="matrix(1 0 0 1 475.67518 82.82501)" font-size="11" font-family="FiraMath"><tspan y="7.579" x="6.16">6</tspan></text>
<text xml:space="preserve" transform="matrix(1 0 0 1 475.67518 82.82501)" font-size="11" font-family="FiraMath"><tspan y="7.579" x="12.32">.</tspan></text>
<text xml:space="preserve" transform="matrix(1 0 0 1 475.67518 82.82501)" font-size="11" font-family="FiraMath"><tspan y="7.579" x="14.96">5</tspan></text>
<text xml:space="preserve" transform="matrix(1 0 0 1 475.67518 82.82501)" font-size="11" font-family="FiraMath"><tspan y="7.579" x="21.12">6</tspan></text>
<text xml:space="preserve" transform="matrix(1 0 0 1 475.67518 82.82501)" font-size="11" font-family="FiraMath"><tspan y="7.579" x="27.28">&#x00b0;</tspan></text>
<text xml:space="preserve" transform="matrix(1 0 0 1 297.63825 82.82501)" font-size="11" font-family="LinLibertine"><tspan y="7.579" x="211.06995 213.48995 216.23995 222.00313 227.76795 230.74895 235.03894 237.78894 242.49695 247.52396">. This can</tspan></text>
<text xml:space="preserve" transform="matrix(1 0 0 1 297.63825 82.82501)" font-size="11" font-family="LinLibertine"><tspan y="22.308" x="0 5.0270006 7.9310009 12.221001 17.765002 20.515002 26.045424 30.962424 33.712427 37.718488 42.635488 48.344488 52.350549 57.267549 61.55755 66.47455 72.43655 75.912548 80.90474 86.47074 89.22074 94.24774 98.53774 101.28774 104.76374 110.68174 115.59874 118.34874 123.729808 128.722 133.43 136.90599 142.45 146.54199">also be represented as the vector </tspan></text>
<text xml:space="preserve" transform="matrix(1 0 0 1 446.84724 97.554019)" font-size="11" font-family="FiraMath"><tspan y="7.579" x="0">(</tspan></text>
<text xml:space="preserve" transform="matrix(1 0 0 1 446.84724 97.554019)" font-size="11" font-family="FiraMath"><tspan y="7.579" x="3.564">2</tspan></text>
<text xml:space="preserve" transform="matrix(1 0 0 1 446.84724 97.554019)" font-size="11" font-family="FiraMath"><tspan y="7.579" x="9.724">,</tspan></text>
<text xml:space="preserve" transform="matrix(1 0 0 1 446.84724 97.554019)" font-size="11" font-family="FiraMath"><tspan y="7.579" x="14.197333">1</tspan></text>
<text xml:space="preserve" transform="matrix(1 0 0 1 446.84724 97.554019)" font-size="11" font-family="FiraMath"><tspan y="7.579" x="20.357335">)</tspan></text>
<text xml:space="preserve" transform="matrix(1 0 0 1 297.63825 82.82501)" font-size="11" font-family="LinLibertine"><tspan y="22.308" x="173.13033">.</tspan></text>
<text xml:space="preserve" transform="matrix(1 0 0 1 297.63825 82.82501)" font-size="11" font-family="LinLibertine"><tspan y="42.748235" x="0 5.808 10.725 14.201 17.149 21.439 24.189 28.479 33.471197 38.388196 41.138196 47.056196 52.524999 60.741998 63.491998 71.62306 76.54006 79.29006 83.99806 89.02506 94.98706 97.73706 102.44506 107.47206 110.37606 115.08406 120.925067 123.82906 128.85607 132.33206 137.24907 139.99907 143.47507 149.39307 152.37407 156.66407">Let&#x2019;s see how we can calculate this:</tspan></text>
<text xml:space="preserve" transform="matrix(1 0 0 1 297.63825 82.82501)" font-size="11" font-family="LinLibertine"><tspan y="63.18847" x="0 8.030001 13.574001 17.666 20.647002 25.311 30.855002 36.817 40.293004 45.320005 48.224004 50.974004 55.682004 61.226 69.916 75.700199 81.244197 87.20619 92.12319 98.08519 101.56119">Horizontal component:</tspan></text>
<text xml:space="preserve" transform="matrix(1 0 0 1 297.63825 153.16349)" font-size="11" font-family="FiraMath"><tspan y="7.579" x="0">F</tspan></text>
<text xml:space="preserve" transform="matrix(1 0 0 1 297.63825 153.16349)" font-size="7.92" font-family="FiraMath"><tspan y="11.429" x="5.401">&#x1d465;</tspan></text>
<text xml:space="preserve" transform="matrix(1 0 0 1 297.63825 153.16349)" font-size="11" font-family="FiraMath"><tspan y="7.579" x="13.421955">=</tspan></text>
<text xml:space="preserve" transform="matrix(1 0 0 1 297.63825 153.16349)" font-size="11" font-family="FiraMath"><tspan y="7.579" x="21.97751">F</tspan></text>
<text xml:space="preserve" transform="matrix(1 0 0 1 297.63825 153.16349)" font-size="11" font-family="FiraMath"><tspan y="7.579" x="29.211846 34.469846 40.893846">cos</tspan></text>
<text xml:space="preserve" transform="matrix(1 0 0 1 297.63825 153.16349)" font-size="11" font-family="FiraMath"><tspan y="7.579" x="46.030847">(</tspan></text>
<text xml:space="preserve" transform="matrix(1 0 0 1 297.63825 153.16349)" font-size="11" font-family="FiraMath"><tspan y="7.579" x="49.594846">&#x1d703;</tspan></text>
<text xml:space="preserve" transform="matrix(1 0 0 1 297.63825 153.16349)" font-size="11" font-family="FiraMath"><tspan y="7.579" x="56.117845">)</tspan></text>
<text xml:space="preserve" transform="matrix(1 0 0 1 297.63825 153.16349)" font-size="11" font-family="FiraMath"><tspan y="7.579" x="62.7374">&#x21d2;</tspan></text>
<text xml:space="preserve" transform="matrix(1 0 0 1 297.63825 153.16349)" font-size="11" font-family="FiraMath"><tspan y="7.579" x="77.232959">F</tspan></text>
<text xml:space="preserve" transform="matrix(1 0 0 1 297.63825 153.16349)" font-size="7.92" font-family="FiraMath"><tspan y="11.429" x="82.63396">&#x1d465;</tspan></text>
<text xml:space="preserve" transform="matrix(1 0 0 1 297.63825 153.16349)" font-size="11" font-family="FiraMath"><tspan y="7.579" x="90.654918">=</tspan></text>
<text xml:space="preserve" transform="matrix(1 0 0 1 396.8487 153.03148)" font-size="11" font-family="FiraMath"><tspan y="7.711" x="0">2</tspan></text>
<text xml:space="preserve" transform="matrix(1 0 0 1 396.8487 153.03148)" font-size="11" font-family="FiraMath"><tspan y="7.711" x="6.16">.</tspan></text>
<text xml:space="preserve" transform="matrix(1 0 0 1 396.8487 153.03148)" font-size="11" font-family="FiraMath"><tspan y="7.711" x="8.8">2</tspan></text>
<text xml:space="preserve" transform="matrix(1 0 0 1 396.8487 153.03148)" font-size="11" font-family="FiraMath"><tspan y="7.711" x="14.96">3</tspan></text>
<text xml:space="preserve" transform="matrix(1 0 0 1 297.63825 153.16349)" font-size="11" font-family="FiraMath"><tspan y="7.579" x="122.1638 127.42181 133.84581">cos</tspan></text>
<text xml:space="preserve" transform="matrix(1 0 0 1 297.63825 153.16349)" font-size="11" font-family="FiraMath"><tspan y="7.579" x="138.9828">(</tspan></text>
<text xml:space="preserve" transform="matrix(1 0 0 1 440.18507 153.03148)" font-size="11" font-family="FiraMath"><tspan y="7.711" x="0">2</tspan></text>
<text xml:space="preserve" transform="matrix(1 0 0 1 440.18507 153.03148)" font-size="11" font-family="FiraMath"><tspan y="7.711" x="6.16">6</tspan></text>
<text xml:space="preserve" transform="matrix(1 0 0 1 440.18507 153.03148)" font-size="11" font-family="FiraMath"><tspan y="7.711" x="12.32">.</tspan></text>
<text xml:space="preserve" transform="matrix(1 0 0 1 440.18507 153.03148)" font-size="11" font-family="FiraMath"><tspan y="7.711" x="14.96">5</tspan></text>
<text xml:space="preserve" transform="matrix(1 0 0 1 440.18507 153.03148)" font-size="11" font-family="FiraMath"><tspan y="7.711" x="21.12">6</tspan></text>
<text xml:space="preserve" transform="matrix(1 0 0 1 297.63825 153.16349)" font-size="11" font-family="FiraMath"><tspan y="7.579" x="169.8268">)</tspan></text>
<text xml:space="preserve" transform="matrix(1 0 0 1 297.63825 153.16349)" font-size="11" font-family="FiraMath"><tspan y="7.579" x="176.44635">=</tspan></text>
<text xml:space="preserve" transform="matrix(1 0 0 1 297.63825 153.16349)" font-size="11" font-family="FiraMath"><tspan y="7.579" x="185.0019">2</tspan></text>
<text xml:space="preserve" transform="matrix(1 0 0 1 297.63825 82.82501)" font-size="11" font-family="LinLibertine"><tspan y="98.357707" x="0 6.2911407 11.283337 15.991337 20.083336 23.559336 26.540337 31.248337 36.275339 39.179338 41.929338 46.637338 52.181337 60.871339 66.65553 72.19953 78.16153 83.07853 89.04053 92.516529">Vecrtical component:</tspan></text>
<text xml:space="preserve" transform="matrix(1 0 0 1 297.63825 188.33272)" font-size="11" font-family="FiraMath"><tspan y="7.579" x="0">F</tspan></text>
<text xml:space="preserve" transform="matrix(1 0 0 1 297.63825 188.33272)" font-size="7.92" font-family="FiraMath"><tspan y="11.429" x="5.401">&#x1d466;</tspan></text>
<text xml:space="preserve" transform="matrix(1 0 0 1 297.63825 188.33272)" font-size="11" font-family="FiraMath"><tspan y="7.579" x="13.311075">=</tspan></text>
<text xml:space="preserve" transform="matrix(1 0 0 1 297.63825 188.33272)" font-size="11" font-family="FiraMath"><tspan y="7.579" x="21.86663">F</tspan></text>
<text xml:space="preserve" transform="matrix(1 0 0 1 297.63825 188.33272)" font-size="11" font-family="FiraMath"><tspan y="7.579" x="29.100964 34.237966 37.339967">sin</tspan></text>
<text xml:space="preserve" transform="matrix(1 0 0 1 297.63825 188.33272)" font-size="11" font-family="FiraMath"><tspan y="7.579" x="43.785966">(</tspan></text>
<text xml:space="preserve" transform="matrix(1 0 0 1 297.63825 188.33272)" font-size="11" font-family="FiraMath"><tspan y="7.579" x="47.349966">&#x1d703;</tspan></text>
<text xml:space="preserve" transform="matrix(1 0 0 1 297.63825 188.33272)" font-size="11" font-family="FiraMath"><tspan y="7.579" x="53.872964">)</tspan></text>
<text xml:space="preserve" transform="matrix(1 0 0 1 297.63825 188.33272)" font-size="11" font-family="FiraMath"><tspan y="7.579" x="60.49252">&#x21d2;</tspan></text>
<text xml:space="preserve" transform="matrix(1 0 0 1 297.63825 188.33272)" font-size="11" font-family="FiraMath"><tspan y="7.579" x="74.988079">F</tspan></text>
<text xml:space="preserve" transform="matrix(1 0 0 1 297.63825 188.33272)" font-size="7.92" font-family="FiraMath"><tspan y="11.429" x="80.38908">&#x1d466;</tspan></text>
<text xml:space="preserve" transform="matrix(1 0 0 1 297.63825 188.33272)" font-size="11" font-family="FiraMath"><tspan y="7.579" x="88.29915">=</tspan></text>
<text xml:space="preserve" transform="matrix(1 0 0 1 394.49296 188.20072)" font-size="11" font-family="FiraMath"><tspan y="7.711" x="0">2</tspan></text>
<text xml:space="preserve" transform="matrix(1 0 0 1 394.49296 188.20072)" font-size="11" font-family="FiraMath"><tspan y="7.711" x="6.16">.</tspan></text>
<text xml:space="preserve" transform="matrix(1 0 0 1 394.49296 188.20072)" font-size="11" font-family="FiraMath"><tspan y="7.711" x="8.8">2</tspan></text>
<text xml:space="preserve" transform="matrix(1 0 0 1 394.49296 188.20072)" font-size="11" font-family="FiraMath"><tspan y="7.711" x="14.96">3</tspan></text>
<text xml:space="preserve" transform="matrix(1 0 0 1 297.63825 188.33272)" font-size="11" font-family="FiraMath"><tspan y="7.579" x="119.80804 124.94504 128.04705">sin</tspan></text>
<text xml:space="preserve" transform="matrix(1 0 0 1 297.63825 188.33272)" font-size="11" font-family="FiraMath"><tspan y="7.579" x="134.49304">(</tspan></text>
<text xml:space="preserve" transform="matrix(1 0 0 1 435.69529 188.20072)" font-size="11" font-family="FiraMath"><tspan y="7.711" x="0">2</tspan></text>
<text xml:space="preserve" transform="matrix(1 0 0 1 435.69529 188.20072)" font-size="11" font-family="FiraMath"><tspan y="7.711" x="6.16">6</tspan></text>
<text xml:space="preserve" transform="matrix(1 0 0 1 435.69529 188.20072)" font-size="11" font-family="FiraMath"><tspan y="7.711" x="12.32">.</tspan></text>
<text xml:space="preserve" transform="matrix(1 0 0 1 435.69529 188.20072)" font-size="11" font-family="FiraMath"><tspan y="7.711" x="14.96">5</tspan></text>
<text xml:space="preserve" transform="matrix(1 0 0 1 435.69529 188.20072)" font-size="11" font-family="FiraMath"><tspan y="7.711" x="21.12">6</tspan></text>
<text xml:space="preserve" transform="matrix(1 0 0 1 297.63825 188.33272)" font-size="11" font-family="FiraMath"><tspan y="7.579" x="165.33704">)</tspan></text>
<text xml:space="preserve" transform="matrix(1 0 0 1 297.63825 188.33272)" font-size="11" font-family="FiraMath"><tspan y="7.579" x="171.95659">=</tspan></text>
<text xml:space="preserve" transform="matrix(1 0 0 1 297.63825 188.33272)" font-size="11" font-family="FiraMath"><tspan y="7.579" x="180.51215">1</tspan></text>
<text xml:space="preserve" transform="matrix(1 0 0 1 297.63825 82.82501)" font-size="11" font-family="LinLibertine"><tspan y="134.39766" x="0 7.6450006 13.607001 19.173003 21.923003 30.054066 34.971067 37.721067 43.221067 48.138067 51.614068 54.364068 57.84007 63.758069 68.67507">And we get the </tspan></text>
<text xml:space="preserve" transform="matrix(1 0 0 1 297.63825 82.82501)" font-size="11" font-family="LinLibertineB" font-weight="bold"><tspan y="134.39766" x="71.40332 77.13638 82.590579 87.606578 91.54458 97.605579">vector</tspan></text>
<text xml:space="preserve" transform="matrix(1 0 0 1 297.63825 82.82501)" font-size="11" font-family="LinLibertine"><tspan y="134.39766" x="102.29785 104.89385">: </tspan></text>
<text xml:space="preserve" transform="matrix(1 0 0 1 405.28034 209.64368)" font-size="11" font-family="FiraMath"><tspan y="7.579" x="0">(</tspan></text>
<text xml:space="preserve" transform="matrix(1 0 0 1 405.28034 209.64368)" font-size="11" font-family="FiraMath"><tspan y="7.579" x="3.564">2</tspan></text>
<text xml:space="preserve" transform="matrix(1 0 0 1 405.28034 209.64368)" font-size="11" font-family="FiraMath"><tspan y="7.579" x="9.724">,</tspan></text>
<text xml:space="preserve" transform="matrix(1 0 0 1 405.28034 209.64368)" font-size="11" font-family="FiraMath"><tspan y="7.579" x="14.197333">1</tspan></text>
<text xml:space="preserve" transform="matrix(1 0 0 1 405.28034 209.64368)" font-size="11" font-family="FiraMath"><tspan y="7.579" x="20.357335">)</tspan></text>
<text xml:space="preserve" transform="matrix(1 0 0 1 28.3465 304.06336)" font-size="13.2" font-family="LinLibertineB" font-weight="bold"><tspan y="8.514257" x="0 8.0388 15.444 22.123202 34.069204 41.738405 46.028406 52.483205">Examples</tspan></text>
<path transform="matrix(1,0,0,1,28.3465,320.8276)" stroke-width="1" stroke-linecap="butt" stroke-dasharray="3,3" stroke-miterlimit="4" stroke-linejoin="miter" fill="none" stroke="#aaaaaa" d="M0 125.07916 156.48609 68.12289"/>
<path transform="matrix(1,0,0,1,28.3465,320.8276)" d="M158.48386 67.39576 156.18372 69.36415 156.48609 68.12289 155.45659 67.36638 158.48386 67.39576Z" fill="#aaaaaa"/>
<path transform="matrix(1,0,0,1,28.3465,320.8276)" stroke-width="1" stroke-linecap="butt" stroke-miterlimit="4" stroke-linejoin="miter" fill="none" stroke="#aaaaaa" d="M158.48386 67.39576 156.18372 69.36415 156.48609 68.12289 155.45659 67.36638 158.48386 67.39576Z"/>
<path transform="matrix(1,0,0,1,28.3465,320.8276)" stroke-width="1" stroke-linecap="butt" stroke-dasharray="3,3" stroke-miterlimit="4" stroke-linejoin="miter" fill="none" stroke="#aaaaaa" d="M108.996219 175.90494 52.039937 19.418848"/>
<path transform="matrix(1,0,0,1,28.3465,320.8276)" d="M51.312807 17.421072 53.2812 19.721207 52.039937 19.418847 51.283426 20.448338 51.312807 17.421072Z" fill="#aaaaaa"/>
<path transform="matrix(1,0,0,1,28.3465,320.8276)" stroke-width="1" stroke-linecap="butt" stroke-miterlimit="4" stroke-linejoin="miter" fill="none" stroke="#aaaaaa" d="M51.312807 17.421072 53.2812 19.721207 52.039937 19.418847 51.283426 20.448338 51.312807 17.421072Z"/>
<text fill="#aaaaaa" xml:space="preserve" transform="matrix(1 0 0 1 188.16847 381.82084)" font-size="11" font-family="FiraMath"><tspan y="9.704988" x="2.1259876">&#x1d465;</tspan></text>
<text fill="#aaaaaa" xml:space="preserve" transform="matrix(1 0 0 1 71.86229 320.8276)" font-size="11" font-family="FiraMath"><tspan y="11.830975" x="4.251975">&#x1d466;</tspan></text>
<path transform="matrix(1,0,0,1,28.3465,320.8276)" stroke-width="1" stroke-linecap="butt" stroke-miterlimit="4" stroke-linejoin="miter" fill="none" stroke="#4daaec" d="M79.91099 95.99394 59.31124 39.396596"/>
<path transform="matrix(1,0,0,1,28.3465,320.8276)" d="M58.58411 37.39882 60.552507 39.69895 59.31124 39.396596 58.55473 40.426084 58.58411 37.39882Z" fill="#4daaec"/>
<path transform="matrix(1,0,0,1,28.3465,320.8276)" stroke-width="1" stroke-linecap="butt" stroke-miterlimit="4" stroke-linejoin="miter" fill="none" stroke="#4daaec" d="M58.58411 37.39882 60.552507 39.69895 59.31124 39.396596 58.55473 40.426084 58.58411 37.39882Z"/>
<path transform="matrix(1,0,0,1,80.40457,347.18333)" d="M0 0H12.078V7.579H0Z" fill="#ffffff"/>
<text fill="#4daaec" xml:space="preserve" transform="matrix(1 0 0 1 80.40457 347.18333)" font-size="11" font-family="FiraMath"><tspan y="7.579" x="6.6">L</tspan></text>
<path transform="matrix(1,0,0,1,28.3465,320.8276)" stroke-width="1" stroke-linecap="butt" stroke-miterlimit="4" stroke-linejoin="miter" fill="none" stroke="#4daaec" d="M79.91099 95.993938 136.50833 75.39419"/>
<path transform="matrix(1,0,0,1,28.3465,320.8276)" d="M138.50612 74.66706 136.20598 76.63545 136.50835 75.39419 135.47885 74.63768 138.50612 74.66706Z" fill="#4daaec"/>
<path transform="matrix(1,0,0,1,28.3465,320.8276)" stroke-width="1" stroke-linecap="butt" stroke-miterlimit="4" stroke-linejoin="miter" fill="none" stroke="#4daaec" d="M138.50612 74.66706 136.20598 76.63545 136.50835 75.39419 135.47885 74.63768 138.50612 74.66706Z"/>
<path transform="matrix(1,0,0,1,162.04724,397.1336)" d="M0 0H12.287V14.179H0Z" fill="#ffffff"/>
<text fill="#4daaec" xml:space="preserve" transform="matrix(1 0 0 1 162.04724 397.1336)" font-size="11" font-family="FiraMath"><tspan y="10.879" x="3.3">T</tspan></text>
<path transform="matrix(1,0,0,1,28.3465,320.8276)" stroke-width="1" stroke-linecap="butt" stroke-miterlimit="4" stroke-linejoin="miter" fill="none" stroke="#ec694d" d="M79.910999 95.99394 33.30252 112.95804"/>
<path transform="matrix(1,0,0,1,28.3465,320.8276)" d="M31.304745 113.685169 33.604879 111.716777 33.30252 112.95804 34.33201 113.71455 31.304745 113.685169Z" fill="#ec694d"/>
<path transform="matrix(1,0,0,1,28.3465,320.8276)" stroke-width="1" stroke-linecap="butt" stroke-miterlimit="4" stroke-linejoin="miter" fill="none" stroke="#ec694d" d="M31.304745 113.685169 33.604879 111.716777 33.30252 112.95804 34.33201 113.71455 31.304745 113.685169Z"/>
<path transform="matrix(1,0,0,1,54.771123,437.1258)" d="M0 0H7.084V7.579H0Z" fill="#ffffff"/>
<text fill="#ec694d" xml:space="preserve" transform="matrix(1 0 0 1 54.771123 437.1258)" font-size="11" font-family="FiraMath"><tspan y="7.579" x="0">D</tspan></text>
<path transform="matrix(1,0,0,1,28.3465,320.8276)" d="M79.91099 138.51369C84.87098 138.51369 89.792728 137.64586 94.4536 135.94944L79.91099 95.99394V138.51369Z" fill="#aaaaaa"/>
<path transform="matrix(1,0,0,1,28.3465,320.8276)" stroke-width="1" stroke-linecap="butt" stroke-miterlimit="4" stroke-linejoin="miter" fill="none" stroke="#ec694d" d="M79.91099 95.99394V160.3168"/>
<path transform="matrix(1,0,0,1,28.3465,320.8276)" d="M79.910999 162.44281 78.848 159.60816 79.910999 160.31682 80.97398 159.60816 79.910999 162.44281Z" fill="#ec694d"/>
<path transform="matrix(1,0,0,1,28.3465,320.8276)" stroke-width="1" stroke-linecap="butt" stroke-miterlimit="4" stroke-linejoin="miter" fill="none" stroke="#ec694d" d="M79.910999 162.44281 78.848 159.60816 79.910999 160.31682 80.97398 159.60816 79.910999 162.44281Z"/>
<path transform="matrix(1,0,0,1,103.714488,486.82038)" d="M0 0H9.086V7.579H0Z" fill="#ffffff"/>
<text fill="#ec694d" xml:space="preserve" transform="matrix(1 0 0 1 103.714488 486.82038)" font-size="11" font-family="FiraMath"><tspan y="7.579" x="0">W</tspan></text>
<path transform="matrix(1,0,0,1,28.3465,320.8276)" stroke-width="1" stroke-linecap="butt" stroke-miterlimit="4" stroke-linejoin="miter" fill="none" stroke="#000000" d="M94.07169 72.74043 120.702419 63.047647"/>
<path transform="matrix(1,0,0,1,28.3465,320.8276)" d="M122.700199 62.320516 120.400058 64.28891 120.702419 63.047647 119.67293 62.291135 122.700199 62.320516Z"/>
<path transform="matrix(1,0,0,1,28.3465,320.8276)" stroke-width="1" stroke-linecap="butt" stroke-miterlimit="4" stroke-linejoin="miter" fill="none" stroke="#000000" d="M122.700199 62.320516 120.400058 64.28891 120.702419 63.047647 119.67293 62.291135 122.700199 62.320516Z"/>
<path transform="matrix(1,0,0,1,150.61602,384.78706)" d="M0 0H3.5376V4.5474H0Z" fill="#ffffff"/>
<text xml:space="preserve" transform="matrix(1 0 0 1 150.61602 384.78706)" font-size="6.6" font-family="FiraMath"><tspan y="4.5474" x="0">&#x1d463;</tspan></text>
<path transform="matrix(1,0,0,1,28.3465,320.8276)" d="M64.28869 90.36784 88.261989 81.64228 95.533298 101.620029 71.56 110.3456 64.28869 90.36784Z" fill="#ffffff"/>
<path transform="matrix(1,0,0,1,28.3465,320.8276)" stroke-width="1" stroke-linecap="butt" stroke-miterlimit="4" stroke-linejoin="miter" fill="none" stroke="#000000" d="M64.28869 90.36784 88.261989 81.64228 95.533298 101.620029 71.56 110.3456 64.28869 90.36784Z"/>
<text xml:space="preserve" transform="matrix(.9396926 -.34202016 .34202016 .9396926 102.89911 414.73915)" font-size="11" font-family="FiraMath"><tspan y="7.579" x="0">&#x1d40c;</tspan></text>
<text xml:space="preserve" transform="matrix(1 0 0 1 28.3465 320.8276)" font-size="11" font-family="LinLibertine"><tspan y="190.29517" x="46.14024 51.47524 57.019239 61.0253 65.7333 70.6503 74.9403 77.6903 83.2343 89.1963 91.9463 96.9733 99.7233 105.4323 108.336299 113.3633 119.325298">Forces on a plane</tspan></text>
<path transform="matrix(1,0,0,1,340.42295,320.8276)" stroke-width="1" stroke-linecap="butt" stroke-miterlimit="4" stroke-linejoin="miter" fill="none" stroke="#000000" d="M0 101.12245H166.529"/>
<path transform="matrix(1,0,0,1,340.42295,320.8276)" d="M168.655 101.12245 165.82035 102.18544 166.529 101.12245 165.82035 100.059459 168.655 101.12245Z"/>
<path transform="matrix(1,0,0,1,340.42295,320.8276)" stroke-width="1" stroke-linecap="butt" stroke-miterlimit="4" stroke-linejoin="miter" fill="none" stroke="#000000" d="M168.655 101.12245 165.82035 102.18544 166.529 101.12245 165.82035 100.059459 168.655 101.12245Z"/>
<path transform="matrix(1,0,0,1,340.42295,320.8276)" stroke-width="1" stroke-linecap="butt" stroke-miterlimit="4" stroke-linejoin="miter" fill="none" stroke="#000000" d="M85.0395 186.16194V19.632939"/>
<path transform="matrix(1,0,0,1,340.42295,320.8276)" d="M85.039508 17.50695 86.10249 20.3416 85.039508 19.632939 83.97651 20.3416 85.039508 17.50695Z"/>
<path transform="matrix(1,0,0,1,340.42295,320.8276)" stroke-width="1" stroke-linecap="butt" stroke-miterlimit="4" stroke-linejoin="miter" fill="none" stroke="#000000" d="M85.039508 17.50695 86.10249 20.3416 85.039508 19.632939 83.97651 20.3416 85.039508 17.50695Z"/>
<text xml:space="preserve" transform="matrix(1 0 0 1 510.50196 416.03459)" font-size="11" font-family="FiraMath"><tspan y="9.704988" x="2.1259876">&#x1d465;</tspan></text>
<text xml:space="preserve" transform="matrix(1 0 0 1 418.15248 320.8276)" font-size="11" font-family="FiraMath"><tspan y="11.830975" x="4.251975">&#x1d466;</tspan></text>
<path transform="matrix(1,0,0,1,340.42295,320.8276)" stroke-width="1" stroke-linecap="butt" stroke-dasharray="3,3" stroke-miterlimit="4" stroke-linejoin="miter" fill="none" stroke="#2ecc40" d="M42.51975 101.12245V118.130359"/>
<path transform="matrix(1,0,0,1,340.42295,320.8276)" stroke-width="1" stroke-linecap="butt" stroke-dasharray="3,3" stroke-miterlimit="4" stroke-linejoin="miter" fill="none" stroke="#2ecc40" d="M85.0395 118.13035H42.51975"/>
<path transform="matrix(1,0,0,1,340.42295,320.8276)" stroke-width="1" stroke-linecap="butt" stroke-miterlimit="4" stroke-linejoin="miter" fill="none" stroke="#ff4136" d="M85.0395 101.12245 45.81583 116.81192"/>
<path transform="matrix(1,0,0,1,340.42295,320.8276)" d="M43.8419 117.60149 46.07902 115.56176 45.81583 116.81191 46.86859 117.53569 43.8419 117.60149Z" fill="#ff4136"/>
<path transform="matrix(1,0,0,1,340.42295,320.8276)" stroke-width="1" stroke-linecap="butt" stroke-miterlimit="4" stroke-linejoin="miter" fill="none" stroke="#ff4136" d="M43.8419 117.60149 46.07902 115.56176 45.81583 116.81191 46.86859 117.53569 43.8419 117.60149Z"/>
<path transform="matrix(1,0,0,1,340.42295,320.8276)" stroke-width="1" stroke-linecap="butt" stroke-dasharray="3,3" stroke-miterlimit="4" stroke-linejoin="miter" fill="none" stroke="#b10dc9" d="M127.55925 101.12245V37.342828"/>
<path transform="matrix(1,0,0,1,340.42295,320.8276)" stroke-width="1" stroke-linecap="butt" stroke-dasharray="3,3" stroke-miterlimit="4" stroke-linejoin="miter" fill="none" stroke="#b10dc9" d="M85.0395 37.342828H127.55925"/>
<path transform="matrix(1,0,0,1,340.42295,320.8276)" stroke-width="1" stroke-linecap="butt" stroke-miterlimit="4" stroke-linejoin="miter" fill="none" stroke="#ff4136" d="M85.0395 101.12245 125.59007 40.296594"/>
<path transform="matrix(1,0,0,1,340.42295,320.8276)" d="M126.769359 38.527666 126.081439 41.47588 125.590068 40.296594H124.31251L126.769359 38.527666Z" fill="#ff4136"/>
<path transform="matrix(1,0,0,1,340.42295,320.8276)" stroke-width="1" stroke-linecap="butt" stroke-miterlimit="4" stroke-linejoin="miter" fill="none" stroke="#ff4136" d="M126.769359 38.527666 126.081439 41.47588 125.590068 40.296594H124.31251L126.769359 38.527666Z"/>
<path transform="matrix(1,0,0,1,340.42295,320.8276)" stroke-width="1" stroke-linecap="butt" stroke-miterlimit="4" stroke-linejoin="miter" fill="none" stroke="#000000" d="M42.51975 118.130359 124.985507 39.787878"/>
<path transform="matrix(1,0,0,1,340.42295,320.8276)" d="M126.52685 38.323606 125.203868 41.04664 124.98551 39.787878 123.73959 39.5053 126.52685 38.323606Z"/>
<path transform="matrix(1,0,0,1,340.42295,320.8276)" stroke-width="1" stroke-linecap="butt" stroke-miterlimit="4" stroke-linejoin="miter" fill="none" stroke="#000000" d="M126.52685 38.323606 125.203868 41.04664 124.98551 39.787878 123.73959 39.5053 126.52685 38.323606Z"/>
<text xml:space="preserve" transform="matrix(1 0 0 1 340.42295 320.8276)" font-size="11" font-family="LinLibertine"><tspan y="200.55219" x="55.807325 62.098466 67.09066 71.79866 75.27466 80.81866 84.91066 87.66066 93.083667 98.92467 101.90567 104.80967 110.37567 113.356678 119.31867">Vector building</tspan></text>
<text xml:space="preserve" transform="matrix(1 0 0 1 28.3465 537.2198)" font-size="13.2" font-family="LinLibertineB" font-weight="bold"><tspan y="8.514257" x="0 9.6624 13.9128 20.792475 27.247275 35.378477 38.678476 43.839677 51.733278 59.86448 65.88368 70.60928 74.85968 82.13288 90.264087">Given functions</tspan></text>
<text fill="#4b69c6" xml:space="preserve" transform="matrix(1 0 0 1 28.3465 553.9841)" font-size="8.8" font-family="DejaVuSansMono"><tspan y="6.6859376" x="0">#</tspan></text>
<text fill="#4b69c6" xml:space="preserve" transform="matrix(1 0 0 1 28.3465 553.9841)" font-size="8.8" font-family="DejaVuSansMono"><tspan y="6.6859376" x="5.298047 10.595648 15.893249 21.19085 26.48845 31.786049">vector</tspan></text>
<text xml:space="preserve" transform="matrix(1 0 0 1 28.3465 553.9841)" font-size="8.8" font-family="DejaVuSansMono"><tspan y="6.6859376" x="37.086328">(</tspan></text>
<text xml:space="preserve" transform="matrix(1 0 0 1 28.3465 553.9841)" font-size="8.8" font-family="DejaVuSansMono"><tspan y="19.091876" x="0 5.2976009 10.5952019 15.892802 21.190403 26.488003 31.785603 37.083204 42.380804 47.678403 52.976 58.2736 63.5712 68.868808 74.166408 79.464008 84.761608 90.059207 95.356807 100.6544 105.952">  (x0, y0), (x1, y1),</tspan></text>
<text xml:space="preserve" transform="matrix(1 0 0 1 28.3465 553.9841)" font-size="8.8" font-family="DejaVuSansMono"><tspan y="31.497813" x="0 5.2976009 10.5952019 15.892802 21.190403 26.488003 31.785603 37.083204 42.380804 47.678403 52.976 58.2736 63.5712 68.868808 74.166408 79.464008 84.761608 90.059207 95.356807 100.6544 105.952 111.2496 116.5472 121.8448 127.1424">  stroke: (paint: black),</tspan></text>
<text xml:space="preserve" transform="matrix(1 0 0 1 28.3465 553.9841)" font-size="8.8" font-family="DejaVuSansMono"><tspan y="43.90375" x="0 5.2976009 10.5952019 15.892802 21.190403 26.488003 31.785603 37.083204 42.380804 47.678403 52.976 58.2736 63.5712 68.868808 74.166408 79.464008 84.761608 90.059207">  angle-style: (),</tspan></text>
<text xml:space="preserve" transform="matrix(1 0 0 1 28.3465 553.9841)" font-size="8.8" font-family="DejaVuSansMono"><tspan y="56.30969" x="0 5.2976009 10.5952019 15.892802 21.190403 26.488003 31.785603 37.083204 42.380804 47.678403 52.976 58.2736 63.5712 68.868808 74.166408 79.464008">  angle-invert: </tspan></text>
<text fill="#d73a49" xml:space="preserve" transform="matrix(1 0 0 1 28.3465 553.9841)" font-size="8.8" font-family="DejaVuSansMono"><tspan y="56.30969" x="84.76875 90.06635 95.36395 100.66155 105.95915">false</tspan></text>
<text xml:space="preserve" transform="matrix(1 0 0 1 28.3465 553.9841)" font-size="8.8" font-family="DejaVuSansMono"><tspan y="56.30969" x="111.25899">,</tspan></text>
<text xml:space="preserve" transform="matrix(1 0 0 1 28.3465 553.9841)" font-size="8.8" font-family="DejaVuSansMono"><tspan y="68.71562" x="0 5.2976009 10.5952019 15.892802 21.190403 26.488003 31.785603 37.083204 42.380804 47.678403 52.976 58.2736 63.5712 68.868808 74.166408 79.464008 84.761608 90.059207 95.356807 100.6544 105.952 111.2496 116.5472">  components: (stroke: </tspan></text>
<text fill="#d73a49" xml:space="preserve" transform="matrix(1 0 0 1 28.3465 553.9841)" font-size="8.8" font-family="DejaVuSansMono"><tspan y="68.71562" x="121.85508 127.15268 132.45029 137.7479">none</tspan></text>
<text xml:space="preserve" transform="matrix(1 0 0 1 28.3465 553.9841)" font-size="8.8" font-family="DejaVuSansMono"><tspan y="68.71562" x="143.04727 148.34488">),</tspan></text>
<text xml:space="preserve" transform="matrix(1 0 0 1 28.3465 553.9841)" font-size="8.8" font-family="DejaVuSansMono"><tspan y="81.12156" x="0 5.2976009 10.5952019 15.892802 21.190403 26.488003 31.785603 37.083204 42.380804">  label: </tspan></text>
<text fill="#d73a49" xml:space="preserve" transform="matrix(1 0 0 1 28.3465 553.9841)" font-size="8.8" font-family="DejaVuSansMono"><tspan y="81.12156" x="47.682424 52.980024 58.277624 63.575223">none</tspan></text>
<text xml:space="preserve" transform="matrix(1 0 0 1 28.3465 553.9841)" font-size="8.8" font-family="DejaVuSansMono"><tspan y="81.12156" x="68.87461">,</tspan></text>
<text xml:space="preserve" transform="matrix(1 0 0 1 28.3465 553.9841)" font-size="8.8" font-family="DejaVuSansMono"><tspan y="93.5275" x="0 5.2976009 10.5952019 15.892802 21.190403 26.488003 31.785603 37.083204">  name: </tspan></text>
<text fill="#d73a49" xml:space="preserve" transform="matrix(1 0 0 1 28.3465 553.9841)" font-size="8.8" font-family="DejaVuSansMono"><tspan y="93.5275" x="42.384378 47.681978 52.979578 58.277177">none</tspan></text>
<text xml:space="preserve" transform="matrix(1 0 0 1 28.3465 553.9841)" font-size="8.8" font-family="DejaVuSansMono"><tspan y="105.93344" x="0">)</tspan></text>
<text fill="#4b69c6" xml:space="preserve" transform="matrix(1 0 0 1 28.3465 553.9841)" font-size="8.8" font-family="DejaVuSansMono"><tspan y="130.74532" x="0">#</tspan></text>
<text fill="#4b69c6" xml:space="preserve" transform="matrix(1 0 0 1 28.3465 553.9841)" font-size="8.8" font-family="DejaVuSansMono"><tspan y="130.74532" x="5.298047 10.595648 15.893249 21.19085">axis</tspan></text>
<text xml:space="preserve" transform="matrix(1 0 0 1 28.3465 553.9841)" font-size="8.8" font-family="DejaVuSansMono"><tspan y="130.74532" x="26.490235">(</tspan></text>
<text xml:space="preserve" transform="matrix(1 0 0 1 28.3465 553.9841)" font-size="8.8" font-family="DejaVuSansMono"><tspan y="143.15125" x="0 5.2976009 10.5952019 15.892802 21.190403 26.488003 31.785603 37.083204 42.380804 47.678403 52.976 58.2736 63.5712 68.868808 74.166408 79.464008 84.761608 90.059207 95.356807 100.6544 105.952 111.2496 116.5472 121.8448 127.1424 132.44 137.73761 143.03522 148.33283">  (xmin, xmax), (ymin, ymax),</tspan></text>
<text xml:space="preserve" transform="matrix(1 0 0 1 28.3465 553.9841)" font-size="8.8" font-family="DejaVuSansMono"><tspan y="155.55719" x="0 5.2976009 10.5952019 15.892802 21.190403 26.488003 31.785603 37.083204 42.380804 47.678403 52.976 58.2736 63.5712 68.868808 74.166408 79.464008 84.761608 90.059207 95.356807 100.6544 105.952 111.2496 116.5472 121.8448 127.1424">  stroke: (paint: black),</tspan></text>
<text xml:space="preserve" transform="matrix(1 0 0 1 28.3465 553.9841)" font-size="8.8" font-family="DejaVuSansMono"><tspan y="167.96312" x="0 5.2976009 10.5952019 15.892802 21.190403 26.488003 31.785603 37.083204 42.380804 47.678403 52.976 58.2736 63.5712 68.868808 74.166408 79.464008 84.761608 90.059207 95.356807 100.6544">  horizontal_label: </tspan></text>
<text fill="#298e0d" xml:space="preserve" transform="matrix(1 0 0 1 28.3465 553.9841)" font-size="8.8" font-family="DejaVuSansMono"><tspan y="167.96312" x="105.96094">$</tspan></text>
<text xml:space="preserve" transform="matrix(1 0 0 1 28.3465 553.9841)" font-size="8.8" font-family="DejaVuSansMono"><tspan y="167.96312" x="111.25899">x</tspan></text>
<text fill="#298e0d" xml:space="preserve" transform="matrix(1 0 0 1 28.3465 553.9841)" font-size="8.8" font-family="DejaVuSansMono"><tspan y="167.96312" x="116.55703">$</tspan></text>
<text xml:space="preserve" transform="matrix(1 0 0 1 28.3465 553.9841)" font-size="8.8" font-family="DejaVuSansMono"><tspan y="167.96312" x="121.85508">,</tspan></text>
<text xml:space="preserve" transform="matrix(1 0 0 1 28.3465 553.9841)" font-size="8.8" font-family="DejaVuSansMono"><tspan y="180.36907" x="0 5.2976009 10.5952019 15.892802 21.190403 26.488003 31.785603 37.083204 42.380804 47.678403 52.976 58.2736 63.5712 68.868808 74.166408 79.464008 84.761608 90.059207">  vertical_label: </tspan></text>
<text fill="#298e0d" xml:space="preserve" transform="matrix(1 0 0 1 28.3465 553.9841)" font-size="8.8" font-family="DejaVuSansMono"><tspan y="180.36907" x="95.364849">$</tspan></text>
<text xml:space="preserve" transform="matrix(1 0 0 1 28.3465 553.9841)" font-size="8.8" font-family="DejaVuSansMono"><tspan y="180.36907" x="100.66289">y</tspan></text>
<text fill="#298e0d" xml:space="preserve" transform="matrix(1 0 0 1 28.3465 553.9841)" font-size="8.8" font-family="DejaVuSansMono"><tspan y="180.36907" x="105.96094">$</tspan></text>
<text xml:space="preserve" transform="matrix(1 0 0 1 28.3465 553.9841)" font-size="8.8" font-family="DejaVuSansMono"><tspan y="180.36907" x="111.25899">,</tspan></text>
<text xml:space="preserve" transform="matrix(1 0 0 1 28.3465 553.9841)" font-size="8.8" font-family="DejaVuSansMono"><tspan y="192.775" x="0 5.2976009 10.5952019 15.892802 21.190403 26.488003 31.785603 37.083204 42.380804 47.678403">  labels: </tspan></text>
<text fill="#d73a49" xml:space="preserve" transform="matrix(1 0 0 1 28.3465 553.9841)" font-size="8.8" font-family="DejaVuSansMono"><tspan y="192.775" x="52.98047 58.27807 63.57567 68.87327">true</tspan></text>
<text xml:space="preserve" transform="matrix(1 0 0 1 28.3465 553.9841)" font-size="8.8" font-family="DejaVuSansMono"><tspan y="205.18094" x="0">)</tspan></text>
<text fill="#4b69c6" xml:space="preserve" transform="matrix(1 0 0 1 28.3465 553.9841)" font-size="8.8" font-family="DejaVuSansMono"><tspan y="229.99282" x="0">#</tspan></text>
<text fill="#4b69c6" xml:space="preserve" transform="matrix(1 0 0 1 28.3465 553.9841)" font-size="8.8" font-family="DejaVuSansMono"><tspan y="229.99282" x="5.298047 10.595648 15.893249 21.19085 26.48845 31.786049 37.08365 42.38125 47.67885 52.976449 58.274049 63.571649 68.86925">rotate_vector</tspan></text>
<text xml:space="preserve" transform="matrix(1 0 0 1 28.3465 553.9841)" font-size="8.8" font-family="DejaVuSansMono"><tspan y="229.99282" x="74.17265 79.47025 84.76785 90.06545 95.36305 100.66065 105.95825 111.25585 116.55345 121.85105 127.14865 132.44626 137.74387 143.04148 148.33908">((x, y) ,angle)</tspan></text>
</svg>
